<svg xmlns="http://www.w3.org/2000/svg" width="1400" height="520" viewBox="0 0 1400 520" fill="none">
  <defs>
    <linearGradient id="grad" x1="80" y1="260.0" x2="320" y2="260.0" gradientUnits="userSpaceOnUse">
      <stop offset="0%" stop-color="#F5F5F2"/>
      <stop offset="48%" stop-color="#F4C7C0"/>
      <stop offset="68%" stop-color="#F04A3A"/>
      <stop offset="100%" stop-color="#D83A2E"/>
    </linearGradient>
  </defs>
  <path d="M 279.53,260.00 L 282.04,262.86 L 284.14,265.88 L 285.65,269.00 L 286.47,272.15 L 286.58,275.27 L 286.05,278.29 L 284.99,281.19 L 283.53,283.95 L 281.78,286.57 L 279.81,289.05 L 277.65,291.37 L 275.29,293.52 L 272.70,295.46 L 269.87,297.15 L 266.80,298.57 L 263.57,299.72 L 260.29,300.67 L 257.12,301.50 L 254.22,302.36 L 251.75,303.42 L 249.81,304.85 L 248.42,306.76 L 247.53,309.22 L 247.01,312.21 L 246.64,315.59 L 246.22,319.16 L 245.52,322.66 L 244.40,325.82 L 242.76,328.43 L 240.60,330.33 L 238.01,331.49 L 235.12,332.00 L 232.08,332.06 L 229.07,331.95 L 226.19,331.96 L 223.51,332.35 L 221.02,333.31 L 218.67,334.90 L 216.38,337.06 L 214.04,339.60 L 211.56,342.24 L 208.90,344.68 L 206.06,346.61 L 203.07,347.80 L 200.00,348.11 L 196.94,347.53 L 193.98,346.15 L 191.16,344.14 L 188.52,341.72 L 186.05,339.10 L 183.75,336.47 L 181.56,333.96 L 179.47,331.61 L 177.44,329.44 L 175.47,327.41 L 173.55,325.47 L 171.68,323.61 L 169.84,321.83 L 168.00,320.19 L 166.07,318.77 L 163.97,317.66 L 161.60,316.92 L 158.88,316.59 L 155.77,316.61 L 152.28,316.87 L 148.50,317.20 L 144.60,317.37 L 140.79,317.18 L 137.30,316.46 L 134.34,315.09 L 132.08,313.07 L 130.56,310.45 L 129.75,307.39 L 129.48,304.07 L 129.51,300.70 L 129.58,297.45 L 129.39,294.44 L 128.75,291.72 L 127.55,289.27 L 125.81,287.00 L 123.66,284.80 L 121.36,282.55 L 119.21,280.14 L 117.51,277.53 L 116.53,274.72 L 116.41,271.75 L 117.19,268.70 L 118.79,265.68 L 120.99,262.76 L 123.53,260.00 L 126.13,257.42 L 128.52,255.00 L 130.51,252.70 L 131.99,250.44 L 132.95,248.18 L 133.46,245.86 L 133.62,243.45 L 133.57,240.95 L 133.41,238.36 L 133.22,235.69 L 133.01,232.93 L 132.78,230.07 L 132.49,227.07 L 132.13,223.91 L 131.70,220.57 L 131.28,217.06 L 130.96,213.43 L 130.91,209.80 L 131.29,206.32 L 132.24,203.15 L 133.88,200.46 L 136.20,198.39 L 139.17,197.01 L 142.62,196.28 L 146.37,196.08 L 150.17,196.23 L 153.83,196.45 L 157.16,196.49 L 160.09,196.13 L 162.60,195.23 L 164.77,193.75 L 166.73,191.79 L 168.63,189.55 L 170.63,187.31 L 172.83,185.36 L 175.30,183.98 L 178.02,183.35 L 180.93,183.53 L 183.95,184.47 L 186.95,185.97 L 189.85,187.76 L 192.59,189.53 L 195.17,190.99 L 197.62,191.89 L 200.00,192.11 L 202.39,191.63 L 204.86,190.53 L 207.46,189.00 L 210.23,187.24 L 213.14,185.47 L 216.18,183.88 L 219.30,182.59 L 222.46,181.66 L 225.64,181.08 L 228.82,180.82 L 231.99,180.83 L 235.13,181.09 L 238.23,181.62 L 241.23,182.45 L 244.07,183.67 L 246.64,185.36 L 248.84,187.59 L 250.58,190.38 L 251.81,193.68 L 252.55,197.37 L 252.89,201.26 L 252.97,205.15 L 253.00,208.81 L 253.23,212.07 L 253.85,214.82 L 255.01,217.02 L 256.77,218.76 L 259.08,220.15 L 261.77,221.40 L 264.61,222.70 L 267.32,224.21 L 269.60,226.05 L 271.27,228.27 L 272.19,230.83 L 272.40,233.65 L 272.03,236.60 L 271.32,239.55 L 270.58,242.40 L 270.11,245.10 L 270.16,247.63 L 270.89,250.04 L 272.34,252.40 L 274.41,254.80 L 276.89,257.31 L 279.53,260.00 Z" fill="none" stroke="url(#grad)" stroke-width="2.1" stroke-linejoin="round" stroke-linecap="round"/><path d="M 284.94,260.00 L 287.61,263.06 L 289.86,266.28 L 291.47,269.61 L 292.35,272.98 L 292.46,276.30 L 291.90,279.53 L 290.76,282.63 L 289.20,285.58 L 287.33,288.38 L 285.23,291.02 L 282.93,293.50 L 280.40,295.80 L 277.64,297.87 L 274.61,299.67 L 271.34,301.19 L 267.89,302.42 L 264.39,303.43 L 261.00,304.32 L 257.90,305.24 L 255.26,306.37 L 253.19,307.89 L 251.71,309.94 L 250.76,312.57 L 250.20,315.75 L 249.81,319.36 L 249.36,323.17 L 248.62,326.91 L 247.41,330.30 L 245.66,333.08 L 243.36,335.11 L 240.59,336.34 L 237.50,336.89 L 234.26,336.96 L 231.04,336.84 L 227.97,336.84 L 225.10,337.26 L 222.45,338.29 L 219.94,339.99 L 217.49,342.30 L 214.99,345.01 L 212.34,347.83 L 209.50,350.43 L 206.47,352.49 L 203.27,353.76 L 200.00,354.10 L 196.74,353.48 L 193.57,352.01 L 190.56,349.86 L 187.73,347.27 L 185.10,344.48 L 182.64,341.67 L 180.31,338.98 L 178.07,336.48 L 175.90,334.16 L 173.80,331.99 L 171.75,329.92 L 169.76,327.93 L 167.79,326.03 L 165.82,324.28 L 163.77,322.76 L 161.52,321.57 L 159.00,320.79 L 156.09,320.44 L 152.76,320.46 L 149.04,320.74 L 145.00,321.08 L 140.84,321.27 L 136.76,321.07 L 133.04,320.29 L 129.88,318.84 L 127.46,316.67 L 125.84,313.88 L 124.97,310.61 L 124.69,307.06 L 124.72,303.46 L 124.79,299.99 L 124.60,296.78 L 123.91,293.88 L 122.63,291.26 L 120.76,288.84 L 118.47,286.49 L 116.02,284.08 L 113.72,281.51 L 111.91,278.72 L 110.86,275.72 L 110.73,272.55 L 111.57,269.29 L 113.27,266.06 L 115.62,262.95 L 118.34,260.00 L 121.11,257.25 L 123.66,254.66 L 125.79,252.20 L 127.37,249.79 L 128.40,247.37 L 128.94,244.90 L 129.11,242.33 L 129.06,239.66 L 128.89,236.89 L 128.68,234.04 L 128.46,231.09 L 128.21,228.04 L 127.90,224.84 L 127.51,221.46 L 127.06,217.89 L 126.61,214.14 L 126.27,210.27 L 126.22,206.39 L 126.62,202.67 L 127.64,199.28 L 129.38,196.42 L 131.87,194.21 L 135.03,192.73 L 138.72,191.95 L 142.72,191.74 L 146.79,191.89 L 150.69,192.13 L 154.25,192.18 L 157.38,191.79 L 160.06,190.83 L 162.38,189.25 L 164.47,187.15 L 166.50,184.76 L 168.64,182.37 L 170.99,180.29 L 173.62,178.82 L 176.53,178.14 L 179.64,178.34 L 182.85,179.34 L 186.06,180.94 L 189.16,182.85 L 192.09,184.75 L 194.85,186.30 L 197.46,187.27 L 200.00,187.50 L 202.55,186.98 L 205.19,185.81 L 207.97,184.17 L 210.92,182.29 L 214.03,180.41 L 217.28,178.71 L 220.61,177.33 L 223.99,176.33 L 227.39,175.71 L 230.78,175.44 L 234.16,175.45 L 237.52,175.73 L 240.83,176.29 L 244.04,177.18 L 247.07,178.48 L 249.81,180.29 L 252.16,182.67 L 254.02,185.65 L 255.33,189.18 L 256.12,193.11 L 256.48,197.27 L 256.57,201.42 L 256.61,205.34 L 256.84,208.82 L 257.50,211.75 L 258.74,214.10 L 260.62,215.95 L 263.09,217.45 L 265.97,218.78 L 269.00,220.16 L 271.89,221.78 L 274.33,223.74 L 276.11,226.11 L 277.10,228.85 L 277.32,231.86 L 276.92,235.01 L 276.16,238.16 L 275.37,241.21 L 274.87,244.09 L 274.93,246.79 L 275.71,249.36 L 277.26,251.88 L 279.46,254.44 L 282.12,257.13 L 284.94,260.00 Z" fill="none" stroke="url(#grad)" stroke-width="2.1" stroke-linejoin="round" stroke-linecap="round"/><path d="M 290.34,260.00 L 293.18,263.25 L 295.57,266.68 L 297.29,270.23 L 298.22,273.80 L 298.35,277.34 L 297.74,280.78 L 296.54,284.07 L 294.88,287.21 L 292.89,290.18 L 290.66,293.00 L 288.20,295.64 L 285.52,298.08 L 282.58,300.28 L 279.36,302.20 L 275.88,303.81 L 272.21,305.12 L 268.48,306.19 L 264.88,307.14 L 261.59,308.12 L 258.78,309.32 L 256.57,310.94 L 255.00,313.11 L 253.99,315.91 L 253.40,319.30 L 252.98,323.14 L 252.50,327.19 L 251.71,331.17 L 250.43,334.77 L 248.57,337.73 L 246.12,339.88 L 243.18,341.20 L 239.89,341.78 L 236.44,341.86 L 233.02,341.73 L 229.75,341.73 L 226.70,342.18 L 223.88,343.27 L 221.21,345.08 L 218.61,347.53 L 215.94,350.42 L 213.13,353.42 L 210.11,356.19 L 206.88,358.38 L 203.48,359.73 L 200.00,360.09 L 196.53,359.43 L 193.16,357.86 L 189.95,355.58 L 186.95,352.82 L 184.16,349.85 L 181.54,346.86 L 179.05,344.01 L 176.67,341.35 L 174.37,338.88 L 172.13,336.57 L 169.95,334.37 L 167.83,332.25 L 165.75,330.23 L 163.65,328.37 L 161.46,326.75 L 159.08,325.49 L 156.39,324.66 L 153.30,324.28 L 149.76,324.31 L 145.79,324.60 L 141.50,324.97 L 137.07,325.16 L 132.74,324.95 L 128.78,324.13 L 125.42,322.58 L 122.85,320.28 L 121.12,317.31 L 120.20,313.83 L 119.89,310.06 L 119.93,306.23 L 120.01,302.53 L 119.80,299.12 L 119.07,296.03 L 117.71,293.25 L 115.72,290.67 L 113.29,288.18 L 110.67,285.61 L 108.23,282.88 L 106.30,279.92 L 105.19,276.72 L 105.05,273.34 L 105.94,269.89 L 107.75,266.45 L 110.25,263.13 L 113.14,260.00 L 116.09,257.07 L 118.81,254.32 L 121.06,251.70 L 122.75,249.14 L 123.84,246.57 L 124.42,243.93 L 124.60,241.20 L 124.54,238.36 L 124.36,235.42 L 124.14,232.39 L 123.91,229.26 L 123.64,226.00 L 123.31,222.60 L 122.90,219.01 L 122.42,215.21 L 121.94,211.22 L 121.58,207.10 L 121.52,202.98 L 121.95,199.02 L 123.04,195.42 L 124.89,192.37 L 127.53,190.02 L 130.90,188.45 L 134.83,187.62 L 139.08,187.40 L 143.40,187.56 L 147.55,187.81 L 151.34,187.86 L 154.67,187.45 L 157.52,186.42 L 159.99,184.74 L 162.21,182.52 L 164.37,179.98 L 166.64,177.43 L 169.14,175.22 L 171.94,173.65 L 175.03,172.93 L 178.34,173.14 L 181.76,174.20 L 185.17,175.91 L 188.47,177.94 L 191.59,179.96 L 194.52,181.61 L 197.30,182.64 L 200.00,182.89 L 202.71,182.34 L 205.52,181.09 L 208.48,179.35 L 211.62,177.35 L 214.93,175.34 L 218.38,173.54 L 221.92,172.07 L 225.52,171.01 L 229.13,170.35 L 232.74,170.06 L 236.33,170.07 L 239.90,170.37 L 243.43,170.97 L 246.84,171.91 L 250.06,173.29 L 252.98,175.22 L 255.48,177.75 L 257.45,180.92 L 258.85,184.67 L 259.69,188.86 L 260.07,193.28 L 260.17,197.70 L 260.21,201.86 L 260.46,205.56 L 261.16,208.68 L 262.48,211.18 L 264.48,213.15 L 267.10,214.74 L 270.17,216.15 L 273.39,217.63 L 276.46,219.34 L 279.06,221.44 L 280.95,223.96 L 282.00,226.87 L 282.24,230.07 L 281.81,233.42 L 281.01,236.77 L 280.17,240.01 L 279.63,243.07 L 279.69,245.95 L 280.53,248.68 L 282.17,251.36 L 284.52,254.09 L 287.34,256.95 L 290.34,260.00 Z" fill="none" stroke="url(#grad)" stroke-width="2.1" stroke-linejoin="round" stroke-linecap="round"/><path d="M 295.75,260.00 L 298.76,263.45 L 301.29,267.08 L 303.11,270.84 L 304.10,274.63 L 304.23,278.38 L 303.59,282.02 L 302.31,285.51 L 300.56,288.83 L 298.45,291.99 L 296.08,294.97 L 293.48,297.77 L 290.64,300.35 L 287.52,302.69 L 284.11,304.72 L 280.42,306.43 L 276.53,307.82 L 272.58,308.96 L 268.76,309.96 L 265.27,310.99 L 262.30,312.27 L 259.96,313.99 L 258.29,316.29 L 257.22,319.26 L 256.59,322.85 L 256.15,326.92 L 255.64,331.21 L 254.80,335.43 L 253.45,339.24 L 251.47,342.38 L 248.88,344.66 L 245.76,346.06 L 242.27,346.68 L 238.62,346.75 L 234.99,346.62 L 231.53,346.62 L 228.30,347.10 L 225.31,348.25 L 222.48,350.17 L 219.72,352.77 L 216.90,355.82 L 213.91,359.01 L 210.71,361.94 L 207.29,364.26 L 203.69,365.70 L 200.00,366.07 L 196.32,365.38 L 192.75,363.71 L 189.35,361.29 L 186.17,358.38 L 183.21,355.22 L 180.43,352.06 L 177.80,349.03 L 175.28,346.21 L 172.84,343.60 L 170.46,341.15 L 168.16,338.82 L 165.91,336.57 L 163.70,334.43 L 161.47,332.46 L 159.15,330.75 L 156.63,329.41 L 153.78,328.53 L 150.50,328.13 L 146.75,328.15 L 142.55,328.47 L 138.00,328.85 L 133.31,329.06 L 128.72,328.84 L 124.52,327.97 L 120.96,326.32 L 118.23,323.89 L 116.41,320.73 L 115.43,317.05 L 115.10,313.05 L 115.15,308.99 L 115.22,305.08 L 115.00,301.46 L 114.23,298.19 L 112.78,295.24 L 110.68,292.51 L 108.10,289.86 L 105.33,287.15 L 102.74,284.25 L 100.70,281.11 L 99.51,277.72 L 99.37,274.14 L 100.31,270.48 L 102.23,266.84 L 104.88,263.32 L 107.95,260.00 L 111.07,256.89 L 113.95,253.98 L 116.34,251.21 L 118.13,248.49 L 119.28,245.77 L 119.89,242.97 L 120.09,240.08 L 120.03,237.07 L 119.84,233.95 L 119.60,230.74 L 119.35,227.42 L 119.07,223.97 L 118.73,220.36 L 118.29,216.55 L 117.78,212.53 L 117.27,208.30 L 116.89,203.94 L 116.83,199.57 L 117.28,195.37 L 118.43,191.56 L 120.40,188.32 L 123.20,185.83 L 126.77,184.16 L 130.93,183.29 L 135.43,183.05 L 140.02,183.23 L 144.42,183.49 L 148.43,183.55 L 151.96,183.11 L 154.98,182.02 L 157.59,180.24 L 159.95,177.88 L 162.24,175.19 L 164.64,172.49 L 167.30,170.15 L 170.27,168.49 L 173.54,167.73 L 177.05,167.95 L 180.67,169.07 L 184.29,170.88 L 187.78,173.04 L 191.08,175.17 L 194.19,176.92 L 197.14,178.01 L 200.00,178.27 L 202.87,177.69 L 205.85,176.37 L 208.98,174.52 L 212.31,172.40 L 215.82,170.28 L 219.48,168.36 L 223.23,166.81 L 227.04,165.69 L 230.87,164.99 L 234.70,164.68 L 238.51,164.69 L 242.29,165.01 L 246.02,165.64 L 249.64,166.64 L 253.05,168.11 L 256.15,170.15 L 258.79,172.83 L 260.89,176.19 L 262.37,180.16 L 263.27,184.60 L 263.67,189.29 L 263.76,193.97 L 263.81,198.38 L 264.08,202.30 L 264.82,205.61 L 266.22,208.26 L 268.34,210.35 L 271.12,212.03 L 274.36,213.53 L 277.79,215.09 L 281.04,216.91 L 283.79,219.13 L 285.79,221.80 L 286.91,224.89 L 287.16,228.28 L 286.71,231.83 L 285.86,235.38 L 284.96,238.82 L 284.40,242.06 L 284.46,245.11 L 285.34,248.01 L 287.09,250.85 L 289.57,253.74 L 292.57,256.77 L 295.75,260.00 Z" fill="none" stroke="url(#grad)" stroke-width="2.1" stroke-linejoin="round" stroke-linecap="round"/><path d="M 301.15,260.00 L 304.33,263.64 L 307.01,267.48 L 308.93,271.45 L 309.97,275.46 L 310.11,279.42 L 309.44,283.26 L 308.09,286.95 L 306.23,290.46 L 304.00,293.79 L 301.50,296.94 L 298.75,299.90 L 295.75,302.63 L 292.46,305.10 L 288.86,307.25 L 284.96,309.05 L 280.85,310.52 L 276.68,311.72 L 272.64,312.78 L 268.95,313.87 L 265.81,315.22 L 263.34,317.03 L 261.58,319.47 L 260.45,322.60 L 259.78,326.40 L 259.32,330.69 L 258.78,335.23 L 257.90,339.69 L 256.47,343.71 L 254.38,347.03 L 251.64,349.44 L 248.34,350.92 L 244.66,351.57 L 240.80,351.65 L 236.97,351.50 L 233.31,351.51 L 229.90,352.01 L 226.73,353.23 L 223.75,355.26 L 220.83,358.00 L 217.85,361.23 L 214.70,364.60 L 211.32,367.70 L 207.70,370.15 L 203.90,371.66 L 200.00,372.06 L 196.11,371.32 L 192.34,369.57 L 188.75,367.01 L 185.39,363.93 L 182.26,360.60 L 179.33,357.26 L 176.55,354.06 L 173.88,351.08 L 171.30,348.32 L 168.80,345.73 L 166.36,343.27 L 163.98,340.90 L 161.65,338.63 L 159.30,336.55 L 156.85,334.74 L 154.18,333.33 L 151.17,332.40 L 147.71,331.97 L 143.75,332.00 L 139.31,332.33 L 134.50,332.74 L 129.54,332.96 L 124.69,332.72 L 120.26,331.80 L 116.50,330.07 L 113.62,327.49 L 111.69,324.16 L 110.65,320.27 L 110.31,316.05 L 110.36,311.76 L 110.44,307.62 L 110.20,303.80 L 109.39,300.34 L 107.86,297.23 L 105.64,294.34 L 102.91,291.55 L 99.99,288.68 L 97.25,285.62 L 95.09,282.30 L 93.84,278.72 L 93.69,274.94 L 94.69,271.07 L 96.71,267.22 L 99.51,263.51 L 102.75,260.00 L 106.05,256.72 L 109.09,253.64 L 111.62,250.71 L 113.50,247.84 L 114.73,244.96 L 115.37,242.01 L 115.58,238.95 L 115.52,235.78 L 115.32,232.48 L 115.07,229.09 L 114.80,225.58 L 114.50,221.94 L 114.14,218.12 L 113.68,214.10 L 113.14,209.85 L 112.60,205.38 L 112.20,200.78 L 112.13,196.16 L 112.61,191.73 L 113.83,187.69 L 115.90,184.28 L 118.86,181.65 L 122.63,179.88 L 127.03,178.96 L 131.79,178.71 L 136.63,178.89 L 141.28,179.18 L 145.52,179.23 L 149.24,178.77 L 152.44,177.62 L 155.20,175.74 L 157.69,173.25 L 160.11,170.40 L 162.65,167.55 L 165.45,165.08 L 168.59,163.32 L 172.05,162.52 L 175.75,162.75 L 179.58,163.94 L 183.40,165.85 L 187.09,168.13 L 190.58,170.38 L 193.86,172.23 L 196.98,173.38 L 200.00,173.66 L 203.04,173.05 L 206.18,171.65 L 209.49,169.70 L 213.01,167.46 L 216.71,165.21 L 220.58,163.19 L 224.55,161.55 L 228.57,160.36 L 232.61,159.63 L 236.65,159.30 L 240.68,159.31 L 244.68,159.65 L 248.62,160.31 L 252.44,161.37 L 256.05,162.92 L 259.32,165.07 L 262.11,167.91 L 264.33,171.46 L 265.89,175.66 L 266.84,180.35 L 267.26,185.30 L 267.36,190.24 L 267.41,194.90 L 267.70,199.05 L 268.48,202.54 L 269.96,205.34 L 272.20,207.55 L 275.13,209.32 L 278.56,210.91 L 282.18,212.56 L 285.61,214.48 L 288.52,216.82 L 290.64,219.65 L 291.81,222.90 L 292.08,226.49 L 291.60,230.24 L 290.70,233.99 L 289.76,237.62 L 289.16,241.05 L 289.23,244.27 L 290.16,247.33 L 292.00,250.33 L 294.63,253.38 L 297.79,256.58 L 301.15,260.00 Z" fill="none" stroke="url(#grad)" stroke-width="2.1" stroke-linejoin="round" stroke-linecap="round"/><path d="M 306.55,260.00 L 309.91,263.84 L 312.73,267.88 L 314.75,272.06 L 315.85,276.28 L 316.00,280.45 L 315.28,284.50 L 313.86,288.39 L 311.91,292.09 L 309.56,295.60 L 306.92,298.92 L 304.03,302.03 L 300.87,304.91 L 297.40,307.51 L 293.60,309.77 L 289.50,311.67 L 285.17,313.22 L 280.77,314.48 L 276.52,315.60 L 272.64,316.75 L 269.33,318.17 L 266.73,320.08 L 264.87,322.65 L 263.68,325.95 L 262.98,329.94 L 262.49,334.47 L 261.92,339.25 L 260.99,343.94 L 259.48,348.19 L 257.29,351.68 L 254.40,354.22 L 250.92,355.77 L 247.05,356.46 L 242.98,356.55 L 238.95,356.39 L 235.09,356.40 L 231.49,356.93 L 228.16,358.21 L 225.02,360.35 L 221.94,363.24 L 218.80,366.64 L 215.49,370.19 L 211.92,373.45 L 208.11,376.03 L 204.11,377.63 L 200.00,378.05 L 195.90,377.27 L 191.93,375.42 L 188.15,372.73 L 184.61,369.48 L 181.31,365.97 L 178.22,362.45 L 175.30,359.08 L 172.49,355.94 L 169.77,353.03 L 167.13,350.31 L 164.56,347.72 L 162.06,345.22 L 159.60,342.84 L 157.12,340.64 L 154.54,338.73 L 151.73,337.24 L 148.56,336.26 L 144.92,335.82 L 140.74,335.85 L 136.06,336.20 L 131.00,336.63 L 125.78,336.86 L 120.67,336.61 L 115.99,335.64 L 112.04,333.81 L 109.00,331.10 L 106.97,327.59 L 105.88,323.49 L 105.52,319.04 L 105.57,314.52 L 105.65,310.17 L 105.40,306.14 L 104.55,302.50 L 102.94,299.22 L 100.60,296.18 L 97.72,293.23 L 94.64,290.21 L 91.76,286.99 L 89.49,283.49 L 88.17,279.72 L 88.01,275.74 L 89.06,271.66 L 91.20,267.61 L 94.15,263.70 L 97.55,260.00 L 101.03,256.54 L 104.23,253.30 L 106.90,250.21 L 108.88,247.19 L 110.17,244.16 L 110.85,241.05 L 111.07,237.83 L 111.00,234.48 L 110.79,231.01 L 110.53,227.43 L 110.25,223.74 L 109.94,219.90 L 109.55,215.89 L 109.07,211.65 L 108.50,207.17 L 107.93,202.47 L 107.51,197.61 L 107.44,192.75 L 107.94,188.08 L 109.22,183.83 L 111.41,180.23 L 114.53,177.46 L 118.50,175.60 L 123.13,174.63 L 128.15,174.37 L 133.25,174.56 L 138.14,174.86 L 142.61,174.92 L 146.53,174.43 L 149.90,173.22 L 152.80,171.24 L 155.43,168.61 L 157.98,165.61 L 160.65,162.61 L 163.61,160.01 L 166.91,158.16 L 170.55,157.31 L 174.46,157.55 L 178.49,158.81 L 182.51,160.82 L 186.40,163.22 L 190.08,165.59 L 193.53,167.54 L 196.81,168.75 L 200.00,169.05 L 203.20,168.40 L 206.51,166.93 L 210.00,164.87 L 213.70,162.52 L 217.61,160.15 L 221.68,158.02 L 225.86,156.29 L 230.10,155.04 L 234.36,154.26 L 238.61,153.92 L 242.85,153.93 L 247.07,154.29 L 251.22,154.99 L 255.24,156.10 L 259.04,157.73 L 262.49,160.00 L 265.43,162.99 L 267.76,166.73 L 269.42,171.15 L 270.41,176.09 L 270.85,181.31 L 270.96,186.52 L 271.01,191.42 L 271.31,195.79 L 272.14,199.47 L 273.69,202.42 L 276.05,204.74 L 279.15,206.61 L 282.76,208.29 L 286.57,210.02 L 290.19,212.05 L 293.25,214.52 L 295.48,217.49 L 296.72,220.92 L 297.00,224.70 L 296.50,228.65 L 295.55,232.60 L 294.55,236.43 L 293.92,240.04 L 293.99,243.43 L 294.98,246.65 L 296.92,249.81 L 299.69,253.03 L 303.02,256.40 L 306.55,260.00 Z" fill="none" stroke="url(#grad)" stroke-width="2.1" stroke-linejoin="round" stroke-linecap="round"/><path d="M 311.96,260.00 L 315.48,264.03 L 318.44,268.28 L 320.57,272.67 L 321.72,277.11 L 321.88,281.49 L 321.13,285.75 L 319.64,289.83 L 317.58,293.72 L 315.12,297.40 L 312.35,300.89 L 309.31,304.16 L 305.98,307.19 L 302.34,309.91 L 298.35,312.29 L 294.04,314.29 L 289.49,315.92 L 284.87,317.25 L 280.40,318.42 L 276.32,319.63 L 272.84,321.12 L 270.11,323.13 L 268.16,325.82 L 266.91,329.29 L 266.17,333.49 L 265.66,338.25 L 265.06,343.27 L 264.08,348.20 L 262.50,352.66 L 260.19,356.33 L 257.16,359.00 L 253.51,360.63 L 249.43,361.35 L 245.16,361.44 L 240.92,361.28 L 236.87,361.29 L 233.09,361.84 L 229.59,363.19 L 226.29,365.44 L 223.06,368.48 L 219.76,372.05 L 216.27,375.77 L 212.53,379.20 L 208.53,381.92 L 204.32,383.59 L 200.00,384.03 L 195.70,383.22 L 191.52,381.28 L 187.55,378.45 L 183.83,375.03 L 180.37,371.35 L 177.12,367.65 L 174.04,364.11 L 171.09,360.81 L 168.24,357.75 L 165.46,354.89 L 162.76,352.16 L 160.13,349.54 L 157.55,347.04 L 154.95,344.73 L 152.24,342.73 L 149.28,341.16 L 145.95,340.13 L 142.12,339.66 L 137.74,339.69 L 132.82,340.06 L 127.51,340.51 L 122.01,340.76 L 116.65,340.49 L 111.73,339.48 L 107.57,337.55 L 104.38,334.70 L 102.25,331.02 L 101.10,326.71 L 100.73,322.03 L 100.78,317.29 L 100.86,312.71 L 100.61,308.48 L 99.71,304.65 L 98.02,301.20 L 95.56,298.01 L 92.54,294.92 L 89.30,291.74 L 86.27,288.36 L 83.89,284.68 L 82.50,280.72 L 82.33,276.54 L 83.44,272.25 L 85.68,267.99 L 88.78,263.88 L 92.36,260.00 L 96.01,256.37 L 99.38,252.96 L 102.18,249.72 L 104.26,246.54 L 105.62,243.36 L 106.33,240.09 L 106.56,236.70 L 106.49,233.19 L 106.27,229.54 L 105.99,225.78 L 105.70,221.90 L 105.37,217.87 L 104.96,213.65 L 104.45,209.20 L 103.86,204.49 L 103.26,199.55 L 102.81,194.45 L 102.74,189.34 L 103.28,184.43 L 104.62,179.97 L 106.92,176.19 L 110.19,173.28 L 114.37,171.32 L 119.23,170.30 L 124.50,170.02 L 129.86,170.22 L 135.00,170.54 L 139.70,170.60 L 143.82,170.09 L 147.36,168.82 L 150.41,166.74 L 153.17,163.98 L 155.85,160.83 L 158.66,157.67 L 161.76,154.93 L 165.23,152.99 L 169.06,152.10 L 173.16,152.36 L 177.40,153.67 L 181.62,155.79 L 185.71,158.31 L 189.57,160.81 L 193.21,162.85 L 196.65,164.13 L 200.00,164.43 L 203.36,163.75 L 206.84,162.21 L 210.51,160.05 L 214.40,157.57 L 218.50,155.09 L 222.78,152.85 L 227.17,151.03 L 231.62,149.72 L 236.10,148.90 L 240.57,148.54 L 245.03,148.56 L 249.45,148.93 L 253.82,149.66 L 258.05,150.83 L 262.04,152.55 L 265.65,154.93 L 268.75,158.07 L 271.20,162.00 L 272.94,166.65 L 273.98,171.84 L 274.45,177.32 L 274.56,182.79 L 274.61,187.95 L 274.93,192.53 L 275.80,196.40 L 277.43,199.50 L 279.91,201.94 L 283.16,203.91 L 286.96,205.66 L 290.96,207.49 L 294.76,209.62 L 297.98,212.21 L 300.32,215.33 L 301.63,218.94 L 301.91,222.91 L 301.39,227.06 L 300.39,231.21 L 299.35,235.23 L 298.69,239.02 L 298.76,242.59 L 299.79,245.97 L 301.83,249.30 L 304.74,252.68 L 308.24,256.22 L 311.96,260.00 Z" fill="none" stroke="url(#grad)" stroke-width="2.1" stroke-linejoin="round" stroke-linecap="round"/><path d="M 317.36,260.00 L 321.05,264.23 L 324.16,268.68 L 326.39,273.28 L 327.60,277.93 L 327.76,282.53 L 326.98,286.99 L 325.41,291.27 L 323.26,295.34 L 320.68,299.21 L 317.77,302.86 L 314.58,306.29 L 311.10,309.46 L 307.28,312.32 L 303.10,314.82 L 298.58,316.91 L 293.81,318.62 L 288.97,320.01 L 284.28,321.24 L 280.01,322.51 L 276.36,324.07 L 273.50,326.18 L 271.45,329.00 L 270.14,332.64 L 269.37,337.04 L 268.83,342.02 L 268.20,347.29 L 267.17,352.46 L 265.52,357.13 L 263.10,360.97 L 259.92,363.78 L 256.09,365.49 L 251.82,366.25 L 247.34,366.34 L 242.90,366.17 L 238.65,366.18 L 234.69,366.76 L 231.02,368.17 L 227.56,370.53 L 224.17,373.71 L 220.71,377.46 L 217.06,381.36 L 213.13,384.96 L 208.94,387.80 L 204.52,389.56 L 200.00,390.02 L 195.49,389.17 L 191.11,387.13 L 186.95,384.16 L 183.05,380.59 L 179.42,376.72 L 176.01,372.84 L 172.79,369.13 L 169.70,365.68 L 166.70,362.47 L 163.80,359.47 L 160.97,356.61 L 158.21,353.86 L 155.50,351.24 L 152.78,348.82 L 149.93,346.72 L 146.84,345.08 L 143.34,344.00 L 139.33,343.51 L 134.73,343.54 L 129.58,343.92 L 124.01,344.40 L 118.25,344.65 L 112.62,344.38 L 107.47,343.31 L 103.11,341.30 L 99.77,338.31 L 97.53,334.45 L 96.33,329.93 L 95.93,325.03 L 95.99,320.05 L 96.08,315.26 L 95.81,310.82 L 94.87,306.81 L 93.09,303.19 L 90.52,299.85 L 87.35,296.60 L 83.96,293.27 L 80.78,289.72 L 78.28,285.87 L 76.83,281.72 L 76.65,277.34 L 77.81,272.84 L 80.16,268.38 L 83.41,264.07 L 87.16,260.00 L 90.99,256.19 L 94.52,252.62 L 97.45,249.22 L 99.64,245.90 L 101.06,242.55 L 101.81,239.13 L 102.05,235.58 L 101.98,231.89 L 101.74,228.07 L 101.45,224.13 L 101.15,220.06 L 100.80,215.83 L 100.38,211.41 L 99.84,206.75 L 99.22,201.81 L 98.59,196.63 L 98.12,191.28 L 98.05,185.93 L 98.61,180.78 L 100.02,176.10 L 102.42,172.14 L 105.86,169.09 L 110.23,167.04 L 115.33,165.97 L 120.86,165.68 L 126.47,165.89 L 131.87,166.22 L 136.79,166.29 L 141.11,165.75 L 144.82,164.42 L 148.02,162.23 L 150.91,159.34 L 153.71,156.04 L 156.66,152.73 L 159.91,149.86 L 163.55,147.83 L 167.57,146.89 L 171.87,147.16 L 176.31,148.54 L 180.74,150.76 L 185.02,153.40 L 189.07,156.02 L 192.88,158.17 L 196.49,159.50 L 200.00,159.82 L 203.52,159.11 L 207.17,157.49 L 211.01,155.22 L 215.09,152.63 L 219.39,150.02 L 223.88,147.68 L 228.48,145.77 L 233.15,144.39 L 237.84,143.54 L 242.53,143.15 L 247.20,143.18 L 251.84,143.56 L 256.41,144.34 L 260.85,145.56 L 265.03,147.36 L 268.82,149.86 L 272.07,153.15 L 274.64,157.27 L 276.46,162.14 L 277.55,167.58 L 278.04,173.33 L 278.16,179.06 L 278.22,184.47 L 278.55,189.28 L 279.46,193.33 L 281.17,196.58 L 283.77,199.14 L 287.18,201.20 L 291.15,203.04 L 295.35,204.95 L 299.33,207.18 L 302.71,209.90 L 305.16,213.18 L 306.53,216.96 L 306.83,221.12 L 306.28,225.47 L 305.24,229.82 L 304.14,234.03 L 303.45,238.01 L 303.53,241.75 L 304.61,245.30 L 306.75,248.78 L 309.80,252.32 L 313.47,256.04 L 317.36,260.00 Z" fill="none" stroke="url(#grad)" stroke-width="2.1" stroke-linejoin="round" stroke-linecap="round"/><path d="M 322.77,260.00 L 326.63,264.42 L 329.88,269.08 L 332.21,273.90 L 333.48,278.76 L 333.65,283.57 L 332.83,288.23 L 331.19,292.71 L 328.93,296.97 L 326.23,301.02 L 323.19,304.84 L 319.86,308.43 L 316.22,311.74 L 312.22,314.73 L 307.84,317.34 L 303.11,319.53 L 298.13,321.32 L 293.06,322.77 L 288.16,324.06 L 283.69,325.39 L 279.88,327.02 L 276.88,329.22 L 274.74,332.18 L 273.37,335.98 L 272.56,340.59 L 272.00,345.80 L 271.34,351.31 L 270.27,356.72 L 268.53,361.60 L 266.00,365.62 L 262.67,368.56 L 258.67,370.35 L 254.21,371.14 L 249.52,371.23 L 244.87,371.06 L 240.43,371.07 L 236.29,371.67 L 232.45,373.16 L 228.83,375.61 L 225.28,378.95 L 221.66,382.87 L 217.84,386.95 L 213.74,390.71 L 209.35,393.69 L 204.73,395.52 L 200.00,396.01 L 195.28,395.12 L 190.70,392.98 L 186.35,389.88 L 182.27,386.14 L 178.47,382.10 L 174.91,378.04 L 171.54,374.16 L 168.30,370.54 L 165.17,367.19 L 162.13,364.05 L 159.17,361.06 L 156.29,358.18 L 153.45,355.44 L 150.60,352.91 L 147.63,350.71 L 144.39,349.00 L 140.73,347.87 L 136.53,347.35 L 131.73,347.39 L 126.34,347.79 L 120.51,348.29 L 114.49,348.55 L 108.60,348.26 L 103.21,347.15 L 98.65,345.04 L 95.15,341.91 L 92.81,337.87 L 91.56,333.15 L 91.14,328.02 L 91.20,322.82 L 91.29,317.80 L 91.01,313.16 L 90.03,308.96 L 88.17,305.18 L 85.48,301.68 L 82.16,298.29 L 78.61,294.81 L 75.29,291.09 L 72.68,287.06 L 71.15,282.72 L 70.97,278.13 L 72.18,273.43 L 74.64,268.77 L 78.04,264.26 L 81.97,260.00 L 85.98,256.02 L 89.66,252.28 L 92.73,248.73 L 95.02,245.25 L 96.50,241.75 L 97.29,238.17 L 97.54,234.45 L 97.46,230.60 L 97.22,226.60 L 96.91,222.48 L 96.59,218.22 L 96.23,213.80 L 95.79,209.17 L 95.23,204.29 L 94.58,199.13 L 93.92,193.71 L 93.43,188.12 L 93.35,182.52 L 93.94,177.14 L 95.41,172.24 L 97.93,168.10 L 101.52,164.90 L 106.10,162.76 L 111.43,161.64 L 117.21,161.34 L 123.09,161.56 L 128.73,161.90 L 133.88,161.97 L 138.40,161.41 L 142.27,160.02 L 145.62,157.73 L 148.65,154.71 L 151.58,151.25 L 154.67,147.79 L 158.07,144.79 L 161.87,142.66 L 166.07,141.68 L 170.57,141.97 L 175.22,143.41 L 179.85,145.73 L 184.33,148.49 L 188.57,151.23 L 192.55,153.48 L 196.33,154.87 L 200.00,155.21 L 203.69,154.46 L 207.50,152.77 L 211.52,150.40 L 215.79,147.68 L 220.29,144.96 L 224.97,142.50 L 229.79,140.51 L 234.68,139.07 L 239.58,138.18 L 244.49,137.77 L 249.37,137.80 L 254.23,138.20 L 259.01,139.01 L 263.65,140.29 L 268.03,142.17 L 271.99,144.79 L 275.39,148.23 L 278.07,152.54 L 279.98,157.63 L 281.12,163.33 L 281.63,169.34 L 281.76,175.34 L 281.82,180.99 L 282.16,186.02 L 283.12,190.26 L 284.91,193.66 L 287.63,196.34 L 291.19,198.49 L 295.35,200.42 L 299.74,202.42 L 303.91,204.75 L 307.44,207.60 L 310.01,211.02 L 311.44,214.98 L 311.75,219.33 L 311.18,223.88 L 310.08,228.43 L 308.94,232.84 L 308.21,237.00 L 308.30,240.90 L 309.43,244.62 L 311.66,248.26 L 314.85,251.97 L 318.69,255.86 L 322.77,260.00 Z" fill="none" stroke="url(#grad)" stroke-width="2.1" stroke-linejoin="round" stroke-linecap="round"/><path d="M 328.17,260.00 L 332.20,264.62 L 335.59,269.48 L 338.03,274.51 L 339.35,279.58 L 339.53,284.60 L 338.67,289.48 L 336.96,294.15 L 334.61,298.60 L 331.79,302.82 L 328.62,306.81 L 325.14,310.56 L 321.33,314.02 L 317.16,317.14 L 312.59,319.87 L 307.65,322.15 L 302.45,324.02 L 297.16,325.54 L 292.05,326.88 L 287.37,328.26 L 283.39,329.97 L 280.26,332.27 L 278.03,335.35 L 276.60,339.32 L 275.75,344.13 L 275.17,349.58 L 274.48,355.33 L 273.36,360.97 L 271.55,366.08 L 268.91,370.27 L 265.43,373.33 L 261.26,375.20 L 256.59,376.03 L 251.71,376.13 L 246.85,375.95 L 242.21,375.96 L 237.88,376.59 L 233.88,378.14 L 230.09,380.70 L 226.40,384.18 L 222.62,388.28 L 218.63,392.54 L 214.34,396.47 L 209.76,399.57 L 204.94,401.49 L 200.00,402.00 L 195.07,401.06 L 190.29,398.84 L 185.75,395.60 L 181.49,391.69 L 177.52,387.47 L 173.81,383.24 L 170.28,379.18 L 166.91,375.41 L 163.64,371.91 L 160.46,368.63 L 157.37,365.51 L 154.36,362.51 L 151.40,359.64 L 148.43,357.00 L 145.32,354.71 L 141.94,352.92 L 138.12,351.73 L 133.74,351.20 L 128.72,351.23 L 123.09,351.65 L 117.01,352.17 L 110.72,352.45 L 104.58,352.15 L 98.95,350.98 L 94.19,348.78 L 90.54,345.52 L 88.10,341.30 L 86.78,336.37 L 86.35,331.02 L 86.41,325.58 L 86.51,320.34 L 86.21,315.50 L 85.18,311.12 L 83.25,307.17 L 80.43,303.52 L 76.98,299.97 L 73.27,296.34 L 69.80,292.46 L 67.07,288.25 L 65.48,283.72 L 65.29,278.93 L 66.56,274.03 L 69.12,269.15 L 72.67,264.45 L 76.77,260.00 L 80.96,255.84 L 84.81,251.94 L 88.01,248.23 L 90.40,244.60 L 91.95,240.95 L 92.77,237.21 L 93.03,233.33 L 92.95,229.30 L 92.69,225.13 L 92.38,220.83 L 92.04,216.38 L 91.67,211.77 L 91.20,206.94 L 90.62,201.84 L 89.93,196.45 L 89.25,190.79 L 88.74,184.96 L 88.66,179.11 L 89.27,173.49 L 90.81,168.38 L 93.44,164.05 L 97.19,160.72 L 101.97,158.48 L 107.53,157.31 L 113.57,157.00 L 119.70,157.22 L 125.59,157.59 L 130.97,157.66 L 135.69,157.07 L 139.73,155.62 L 143.23,153.23 L 146.38,150.07 L 149.45,146.47 L 152.67,142.85 L 156.22,139.72 L 160.20,137.49 L 164.58,136.48 L 169.28,136.77 L 174.13,138.28 L 178.96,140.70 L 183.64,143.59 L 188.06,146.44 L 192.22,148.79 L 196.17,150.24 L 200.00,150.60 L 203.85,149.82 L 207.83,148.05 L 212.03,145.58 L 216.48,142.74 L 221.18,139.89 L 226.07,137.33 L 231.10,135.25 L 236.20,133.75 L 241.33,132.81 L 246.44,132.39 L 251.55,132.42 L 256.61,132.84 L 261.61,133.68 L 266.45,135.02 L 271.02,136.99 L 275.16,139.72 L 278.71,143.31 L 281.51,147.81 L 283.50,153.13 L 284.69,159.07 L 285.23,165.35 L 285.36,171.61 L 285.42,177.51 L 285.78,182.76 L 286.77,187.19 L 288.64,190.74 L 291.48,193.53 L 295.20,195.78 L 299.55,197.80 L 304.13,199.88 L 308.48,202.32 L 312.17,205.29 L 314.85,208.87 L 316.34,212.99 L 316.67,217.53 L 316.07,222.29 L 314.93,227.04 L 313.74,231.64 L 312.98,235.99 L 313.06,240.06 L 314.25,243.94 L 316.58,247.75 L 319.91,251.62 L 323.92,255.67 L 328.17,260.00 Z" fill="none" stroke="url(#grad)" stroke-width="2.1" stroke-linejoin="round" stroke-linecap="round"/><path d="M 333.57,260.00 L 337.78,264.81 L 341.31,269.88 L 343.85,275.12 L 345.23,280.41 L 345.41,285.64 L 344.52,290.72 L 342.74,295.59 L 340.29,300.23 L 337.35,304.63 L 334.04,308.79 L 330.41,312.69 L 326.45,316.30 L 322.10,319.55 L 317.34,322.39 L 312.19,324.77 L 306.77,326.72 L 301.26,328.30 L 295.93,329.70 L 291.06,331.14 L 286.91,332.93 L 283.65,335.32 L 281.32,338.53 L 279.83,342.67 L 278.95,347.68 L 278.33,353.36 L 277.62,359.35 L 276.45,365.23 L 274.57,370.55 L 271.81,374.92 L 268.19,378.11 L 263.84,380.06 L 258.98,380.92 L 253.89,381.03 L 248.82,380.84 L 243.99,380.85 L 239.48,381.51 L 235.30,383.12 L 231.36,385.79 L 227.51,389.42 L 223.57,393.69 L 219.41,398.13 L 214.95,402.22 L 210.17,405.46 L 205.15,407.46 L 200.00,407.98 L 194.87,407.01 L 189.88,404.69 L 185.15,401.32 L 180.71,397.25 L 176.58,392.85 L 172.70,388.43 L 169.03,384.21 L 165.51,380.27 L 162.11,376.63 L 158.79,373.21 L 155.57,369.96 L 152.44,366.83 L 149.35,363.84 L 146.25,361.09 L 143.02,358.70 L 139.49,356.83 L 135.52,355.60 L 130.95,355.04 L 125.71,355.08 L 119.85,355.52 L 113.51,356.06 L 106.96,356.35 L 100.55,356.03 L 94.69,354.82 L 89.73,352.53 L 85.92,349.13 L 83.38,344.73 L 82.01,339.59 L 81.56,334.01 L 81.62,328.35 L 81.72,322.89 L 81.42,317.84 L 80.34,313.27 L 78.32,309.16 L 75.39,305.35 L 71.79,301.66 L 67.93,297.87 L 64.31,293.83 L 61.47,289.45 L 59.81,284.72 L 59.61,279.73 L 60.93,274.62 L 63.60,269.54 L 67.30,264.63 L 71.57,260.00 L 75.94,255.67 L 79.95,251.61 L 83.29,247.73 L 85.78,243.95 L 87.39,240.14 L 88.24,236.25 L 88.52,232.21 L 88.44,228.01 L 88.17,223.66 L 87.84,219.18 L 87.49,214.54 L 87.10,209.73 L 86.62,204.70 L 86.01,199.39 L 85.29,193.77 L 84.58,187.88 L 84.05,181.79 L 83.96,175.70 L 84.60,169.84 L 86.21,164.51 L 88.94,160.00 L 92.86,156.53 L 97.83,154.20 L 103.64,152.98 L 109.92,152.65 L 116.32,152.89 L 122.45,153.27 L 128.06,153.34 L 132.97,152.73 L 137.19,151.21 L 140.84,148.73 L 144.12,145.44 L 147.32,141.68 L 150.67,137.92 L 154.38,134.65 L 158.52,132.33 L 163.09,131.27 L 167.98,131.58 L 173.04,133.15 L 178.08,135.67 L 182.95,138.68 L 187.56,141.65 L 191.90,144.10 L 196.01,145.62 L 200.00,145.98 L 204.01,145.17 L 208.16,143.33 L 212.53,140.75 L 217.17,137.79 L 222.07,134.83 L 227.17,132.16 L 232.41,129.99 L 237.73,128.42 L 243.07,127.45 L 248.40,127.01 L 253.72,127.04 L 259.00,127.48 L 264.21,128.36 L 269.25,129.75 L 274.02,131.80 L 278.33,134.64 L 282.02,138.39 L 284.95,143.08 L 287.02,148.62 L 288.26,154.81 L 288.82,161.35 L 288.96,167.88 L 289.02,174.03 L 289.40,179.51 L 290.43,184.12 L 292.38,187.82 L 295.34,190.73 L 299.22,193.08 L 303.75,195.17 L 308.52,197.35 L 313.06,199.89 L 316.90,202.98 L 319.69,206.71 L 321.25,211.01 L 321.59,215.74 L 320.97,220.70 L 319.78,225.65 L 318.53,230.45 L 317.74,234.97 L 317.83,239.22 L 319.06,243.27 L 321.49,247.23 L 324.97,251.26 L 329.14,255.49 L 333.57,260.00 Z" fill="none" stroke="url(#grad)" stroke-width="2.1" stroke-linejoin="round" stroke-linecap="round"/><path d="M 338.98,260.00 L 343.35,265.01 L 347.03,270.28 L 349.67,275.73 L 351.10,281.24 L 351.30,286.68 L 350.37,291.96 L 348.51,297.03 L 345.96,301.85 L 342.90,306.43 L 339.46,310.76 L 335.69,314.82 L 331.56,318.58 L 327.04,321.96 L 322.09,324.91 L 316.73,327.40 L 311.09,329.41 L 305.35,331.06 L 299.81,332.51 L 294.74,334.02 L 290.42,335.88 L 287.03,338.36 L 284.61,341.71 L 283.06,346.01 L 282.14,351.23 L 281.50,357.13 L 280.76,363.37 L 279.55,369.49 L 277.58,375.02 L 274.72,379.57 L 270.95,382.89 L 266.42,384.92 L 261.36,385.81 L 256.07,385.92 L 250.80,385.73 L 245.76,385.74 L 241.08,386.42 L 236.73,388.10 L 232.63,390.88 L 228.62,394.66 L 224.53,399.09 L 220.20,403.72 L 215.55,407.97 L 210.58,411.34 L 205.36,413.42 L 200.00,413.97 L 194.66,412.96 L 189.47,410.55 L 184.55,407.03 L 179.93,402.80 L 175.63,398.22 L 171.60,393.63 L 167.78,389.23 L 164.12,385.14 L 160.57,381.35 L 157.13,377.79 L 153.78,374.41 L 150.51,371.15 L 147.30,368.04 L 144.08,365.17 L 140.71,362.69 L 137.04,360.75 L 132.91,359.47 L 128.15,358.89 L 122.71,358.93 L 116.61,359.38 L 110.01,359.94 L 103.19,360.25 L 96.53,359.92 L 90.43,358.66 L 85.27,356.27 L 81.31,352.73 L 78.66,348.16 L 77.24,342.81 L 76.77,337.01 L 76.83,331.11 L 76.94,325.43 L 76.62,320.18 L 75.50,315.43 L 73.40,311.15 L 70.35,307.19 L 66.60,303.34 L 62.58,299.40 L 58.82,295.20 L 55.86,290.64 L 54.14,285.72 L 53.93,280.53 L 55.30,275.21 L 58.09,269.92 L 61.93,264.82 L 66.38,260.00 L 70.92,255.49 L 75.09,251.27 L 78.57,247.24 L 81.15,243.30 L 82.84,239.34 L 83.72,235.28 L 84.01,231.08 L 83.92,226.72 L 83.64,222.19 L 83.30,217.53 L 82.94,212.70 L 82.53,207.70 L 82.03,202.46 L 81.40,196.94 L 80.65,191.10 L 79.91,184.96 L 79.36,178.63 L 79.27,172.28 L 79.93,166.19 L 81.60,160.65 L 84.45,155.96 L 88.52,152.35 L 93.70,149.92 L 99.74,148.65 L 106.28,148.31 L 112.93,148.56 L 119.32,148.95 L 125.15,149.03 L 130.26,148.40 L 134.65,146.81 L 138.44,144.23 L 141.86,140.80 L 145.19,136.89 L 148.68,132.98 L 152.53,129.58 L 156.84,127.16 L 161.59,126.06 L 166.68,126.38 L 171.95,128.01 L 177.19,130.64 L 182.26,133.77 L 187.06,136.87 L 191.57,139.41 L 195.84,140.99 L 200.00,141.37 L 204.17,140.53 L 208.49,138.61 L 213.04,135.93 L 217.87,132.85 L 222.96,129.76 L 228.27,126.99 L 233.73,124.73 L 239.26,123.10 L 244.81,122.09 L 250.36,121.63 L 255.89,121.66 L 261.39,122.12 L 266.80,123.03 L 272.06,124.48 L 277.01,126.61 L 281.50,129.57 L 285.34,133.47 L 288.38,138.35 L 290.54,144.12 L 291.83,150.56 L 292.41,157.36 L 292.56,164.16 L 292.62,170.56 L 293.01,176.25 L 294.09,181.05 L 296.12,184.90 L 299.20,187.93 L 303.23,190.37 L 307.94,192.55 L 312.91,194.81 L 317.63,197.45 L 321.63,200.68 L 324.53,204.55 L 326.15,209.03 L 326.51,213.95 L 325.86,219.11 L 324.62,224.27 L 323.33,229.25 L 322.50,233.96 L 322.60,238.38 L 323.88,242.59 L 326.41,246.71 L 330.02,250.91 L 334.37,255.31 L 338.98,260.00 Z" fill="none" stroke="url(#grad)" stroke-width="2.1" stroke-linejoin="round" stroke-linecap="round"/><path d="M 344.38,260.00 L 348.93,265.20 L 352.75,270.68 L 355.49,276.34 L 356.98,282.06 L 357.18,287.71 L 356.21,293.20 L 354.29,298.47 L 351.64,303.48 L 348.46,308.24 L 344.88,312.73 L 340.96,316.95 L 336.68,320.85 L 331.98,324.37 L 326.83,327.44 L 321.27,330.02 L 315.41,332.11 L 309.45,333.83 L 303.69,335.33 L 298.43,336.90 L 293.94,338.83 L 290.42,341.41 L 287.90,344.89 L 286.29,349.36 L 285.34,354.78 L 284.67,360.91 L 283.90,367.39 L 282.64,373.74 L 280.60,379.49 L 277.62,384.22 L 273.71,387.67 L 269.00,389.78 L 263.75,390.71 L 258.25,390.82 L 252.77,390.62 L 247.54,390.63 L 242.67,391.34 L 238.16,393.08 L 233.90,395.97 L 229.74,399.89 L 225.48,404.50 L 220.98,409.30 L 216.16,413.73 L 210.99,417.23 L 205.57,419.39 L 200.00,419.96 L 194.45,418.91 L 189.06,416.40 L 183.95,412.75 L 179.15,408.35 L 174.68,403.60 L 170.49,398.83 L 166.53,394.26 L 162.72,390.01 L 159.04,386.06 L 155.46,382.37 L 151.98,378.86 L 148.59,375.47 L 145.26,372.24 L 141.90,369.26 L 138.41,366.69 L 134.60,364.67 L 130.30,363.34 L 125.36,362.73 L 119.70,362.77 L 113.37,363.25 L 106.51,363.83 L 99.43,364.15 L 92.51,363.80 L 86.17,362.49 L 80.81,360.02 L 76.69,356.34 L 73.94,351.59 L 72.46,346.03 L 71.97,340.00 L 72.04,333.88 L 72.15,327.98 L 71.82,322.52 L 70.66,317.59 L 68.48,313.14 L 65.31,309.02 L 61.41,305.03 L 57.24,300.94 L 53.33,296.57 L 50.26,291.83 L 48.47,286.72 L 48.25,281.33 L 49.68,275.80 L 52.57,270.31 L 56.57,265.01 L 61.18,260.00 L 65.90,255.32 L 70.24,250.93 L 73.84,246.74 L 76.53,242.65 L 78.28,238.54 L 79.20,234.32 L 79.50,229.96 L 79.41,225.42 L 79.12,220.72 L 78.76,215.87 L 78.39,210.86 L 77.96,205.67 L 77.44,200.22 L 76.78,194.48 L 76.01,188.42 L 75.24,182.04 L 74.67,175.46 L 74.58,168.87 L 75.26,162.54 L 77.00,156.79 L 79.96,151.91 L 84.19,148.16 L 89.57,145.64 L 95.84,144.32 L 102.64,143.97 L 109.55,144.22 L 116.18,144.63 L 122.24,144.71 L 127.55,144.06 L 132.11,142.41 L 136.05,139.73 L 139.60,136.17 L 143.06,132.10 L 146.68,128.04 L 150.68,124.51 L 155.16,122.00 L 160.10,120.85 L 165.39,121.18 L 170.85,122.88 L 176.30,125.61 L 181.57,128.86 L 186.55,132.08 L 191.24,134.72 L 195.68,136.36 L 200.00,136.76 L 204.33,135.88 L 208.82,133.89 L 213.55,131.10 L 218.56,127.91 L 223.86,124.70 L 229.37,121.81 L 235.04,119.47 L 240.78,117.78 L 246.55,116.73 L 252.32,116.25 L 258.07,116.28 L 263.78,116.76 L 269.40,117.71 L 274.86,119.21 L 280.01,121.43 L 284.67,124.50 L 288.66,128.56 L 291.82,133.62 L 294.06,139.61 L 295.40,146.30 L 296.01,153.37 L 296.16,160.43 L 296.22,167.08 L 296.63,172.99 L 297.75,177.98 L 299.86,181.98 L 303.05,185.13 L 307.25,187.66 L 312.14,189.93 L 317.30,192.28 L 322.20,195.02 L 326.36,198.37 L 329.38,202.40 L 331.06,207.05 L 331.43,212.16 L 330.75,217.52 L 329.47,222.88 L 328.12,228.06 L 327.27,232.95 L 327.36,237.54 L 328.70,241.91 L 331.32,246.20 L 335.08,250.55 L 339.59,255.13 L 344.38,260.00 Z" fill="none" stroke="url(#grad)" stroke-width="2.1" stroke-linejoin="round" stroke-linecap="round"/><path d="M 349.79,260.00 L 354.50,265.40 L 358.46,271.08 L 361.31,276.95 L 362.85,282.89 L 363.06,288.75 L 362.06,294.45 L 360.06,299.91 L 357.31,305.11 L 354.02,310.04 L 350.31,314.71 L 346.24,319.08 L 341.79,323.13 L 336.92,326.78 L 331.58,329.96 L 325.81,332.64 L 319.73,334.81 L 313.55,336.59 L 307.57,338.15 L 302.11,339.78 L 297.46,341.78 L 293.80,344.46 L 291.19,348.06 L 289.52,352.70 L 288.53,358.32 L 287.84,364.69 L 287.04,371.41 L 285.73,378.00 L 283.62,383.97 L 280.53,388.87 L 276.47,392.45 L 271.59,394.63 L 266.14,395.60 L 260.43,395.72 L 254.75,395.50 L 249.32,395.52 L 244.27,396.25 L 239.59,398.06 L 235.17,401.06 L 230.85,405.13 L 226.43,409.91 L 221.77,414.89 L 216.76,419.48 L 211.41,423.11 L 205.77,425.35 L 200.00,425.94 L 194.24,424.86 L 188.65,422.25 L 183.34,418.47 L 178.37,413.90 L 173.73,408.97 L 169.39,404.02 L 165.27,399.28 L 161.33,394.87 L 157.51,390.78 L 153.79,386.95 L 150.18,383.31 L 146.66,379.80 L 143.21,376.44 L 139.73,373.35 L 136.10,370.68 L 132.15,368.59 L 127.69,367.21 L 122.57,366.58 L 116.70,366.62 L 110.12,367.11 L 103.01,367.72 L 95.66,368.04 L 88.48,367.69 L 81.91,366.33 L 76.34,363.76 L 72.08,359.94 L 69.22,355.02 L 67.69,349.24 L 67.18,342.99 L 67.25,336.64 L 67.37,330.52 L 67.02,324.86 L 65.82,319.74 L 63.56,315.13 L 60.27,310.86 L 56.23,306.71 L 51.90,302.47 L 47.84,297.94 L 44.65,293.02 L 42.80,287.72 L 42.57,282.12 L 44.05,276.39 L 47.05,270.70 L 51.20,265.20 L 55.99,260.00 L 60.88,255.14 L 65.38,250.59 L 69.12,246.24 L 71.91,242.00 L 73.72,237.73 L 74.68,233.36 L 74.99,228.83 L 74.89,224.13 L 74.60,219.25 L 74.23,214.22 L 73.83,209.03 L 73.39,203.63 L 72.85,197.99 L 72.17,192.03 L 71.37,185.74 L 70.57,179.12 L 69.98,172.30 L 69.88,165.46 L 70.59,158.90 L 72.39,152.93 L 75.46,147.87 L 79.85,143.97 L 85.43,141.36 L 91.94,139.99 L 98.99,139.62 L 106.16,139.89 L 113.04,140.31 L 119.33,140.39 L 124.84,139.72 L 129.57,138.01 L 133.66,135.22 L 137.34,131.53 L 140.93,127.32 L 144.69,123.10 L 148.84,119.43 L 153.48,116.83 L 158.61,115.64 L 164.09,115.99 L 169.76,117.75 L 175.42,120.57 L 180.88,123.95 L 186.05,127.29 L 190.91,130.03 L 195.52,131.73 L 200.00,132.14 L 204.50,131.23 L 209.15,129.17 L 214.05,126.28 L 219.26,122.96 L 224.75,119.64 L 230.47,116.64 L 236.35,114.21 L 242.31,112.45 L 248.30,111.36 L 254.28,110.87 L 260.24,110.90 L 266.16,111.40 L 272.00,112.38 L 277.66,113.94 L 283.00,116.24 L 287.84,119.43 L 291.98,123.64 L 295.26,128.89 L 297.58,135.10 L 298.97,142.05 L 299.60,149.38 L 299.75,156.70 L 299.83,163.60 L 300.25,169.74 L 301.41,174.91 L 303.60,179.06 L 306.91,182.32 L 311.26,184.95 L 316.34,187.30 L 321.69,189.74 L 326.78,192.59 L 331.09,196.06 L 334.22,200.24 L 335.96,205.07 L 336.35,210.37 L 335.65,215.93 L 334.31,221.49 L 332.92,226.86 L 332.03,231.94 L 332.13,236.70 L 333.51,241.24 L 336.24,245.68 L 340.13,250.20 L 344.82,254.94 L 349.79,260.00 Z" fill="none" stroke="url(#grad)" stroke-width="2.1" stroke-linejoin="round" stroke-linecap="round"/><path d="M 355.19,260.00 L 360.07,265.59 L 364.18,271.48 L 367.13,277.57 L 368.73,283.71 L 368.94,289.79 L 367.91,295.69 L 365.84,301.35 L 362.99,306.74 L 359.57,311.85 L 355.73,316.68 L 351.52,321.22 L 346.91,325.41 L 341.86,329.19 L 336.33,332.49 L 330.35,335.26 L 324.05,337.51 L 317.64,339.35 L 311.45,340.97 L 305.79,342.66 L 300.97,344.73 L 297.18,347.51 L 294.48,351.24 L 292.75,356.05 L 291.72,361.87 L 291.01,368.46 L 290.18,375.43 L 288.83,382.26 L 286.63,388.44 L 283.43,393.52 L 279.23,397.23 L 274.17,399.49 L 268.52,400.49 L 262.61,400.61 L 256.72,400.39 L 251.10,400.41 L 245.87,401.17 L 241.02,403.04 L 236.44,406.15 L 231.96,410.36 L 227.39,415.32 L 222.55,420.48 L 217.37,425.23 L 211.82,429.00 L 205.98,431.32 L 200.00,431.93 L 194.04,430.80 L 188.24,428.11 L 182.74,424.18 L 177.59,419.46 L 172.78,414.35 L 168.28,409.22 L 164.02,404.31 L 159.93,399.74 L 155.97,395.50 L 152.13,391.53 L 148.38,387.76 L 144.74,384.12 L 141.16,380.65 L 137.55,377.44 L 133.79,374.67 L 129.70,372.50 L 125.08,371.07 L 119.77,370.43 L 113.69,370.47 L 106.88,370.98 L 99.51,371.60 L 91.90,371.94 L 84.46,371.58 L 77.65,370.16 L 71.88,367.50 L 67.46,363.55 L 64.50,358.44 L 62.92,352.46 L 62.39,345.99 L 62.46,339.41 L 62.58,333.07 L 62.23,327.20 L 60.98,321.90 L 58.63,317.12 L 55.23,312.69 L 51.04,308.40 L 46.55,304.00 L 42.35,299.31 L 39.05,294.21 L 37.12,288.72 L 36.89,282.92 L 38.42,276.98 L 41.53,271.08 L 45.83,265.38 L 50.79,260.00 L 55.86,254.97 L 60.52,250.25 L 64.40,245.75 L 67.29,241.35 L 69.17,236.93 L 70.16,232.40 L 70.48,227.71 L 70.38,222.83 L 70.07,217.78 L 69.69,212.57 L 69.28,207.19 L 68.83,201.60 L 68.27,195.75 L 67.56,189.58 L 66.73,183.06 L 65.90,176.20 L 65.29,169.13 L 65.19,162.05 L 65.92,155.25 L 67.79,149.06 L 70.97,143.82 L 75.52,139.79 L 81.30,137.08 L 88.04,135.66 L 95.35,135.28 L 102.77,135.56 L 109.91,135.99 L 116.41,136.08 L 122.13,135.38 L 127.03,133.61 L 131.26,130.72 L 135.08,126.90 L 138.79,122.53 L 142.69,118.16 L 146.99,114.36 L 151.80,111.67 L 157.11,110.43 L 162.80,110.79 L 168.67,112.62 L 174.53,115.54 L 180.19,119.04 L 185.55,122.50 L 190.58,125.34 L 195.36,127.10 L 200.00,127.53 L 204.66,126.59 L 209.48,124.45 L 214.56,121.45 L 219.95,118.02 L 225.64,114.57 L 231.57,111.47 L 237.66,108.95 L 243.83,107.13 L 250.04,106.00 L 256.24,105.49 L 262.41,105.52 L 268.55,106.03 L 274.60,107.05 L 280.46,108.67 L 285.99,111.05 L 291.01,114.36 L 295.30,118.72 L 298.69,124.16 L 301.10,130.60 L 302.55,137.79 L 303.19,145.39 L 303.35,152.97 L 303.43,160.12 L 303.86,166.48 L 305.07,171.84 L 307.33,176.14 L 310.77,179.52 L 315.27,182.25 L 320.54,184.68 L 326.08,187.21 L 331.35,190.16 L 335.82,193.76 L 339.06,198.09 L 340.87,203.09 L 341.27,208.58 L 340.54,214.34 L 339.16,220.10 L 337.71,225.66 L 336.79,230.92 L 336.90,235.86 L 338.33,240.56 L 341.16,245.16 L 345.19,249.85 L 350.04,254.76 L 355.19,260.00 Z" fill="none" stroke="url(#grad)" stroke-width="2.1" stroke-linejoin="round" stroke-linecap="round"/><path d="M 360.60,260.00 L 365.65,265.78 L 369.90,271.88 L 372.95,278.18 L 374.60,284.54 L 374.83,290.83 L 373.75,296.93 L 371.61,302.79 L 368.66,308.36 L 365.13,313.65 L 361.15,318.66 L 356.79,323.35 L 352.03,327.69 L 346.80,331.60 L 341.08,335.01 L 334.89,337.88 L 328.36,340.21 L 321.74,342.12 L 315.33,343.79 L 309.48,345.53 L 304.49,347.68 L 300.57,350.55 L 297.77,354.42 L 295.98,359.39 L 294.92,365.42 L 294.18,372.24 L 293.32,379.45 L 291.92,386.52 L 289.65,392.91 L 286.34,398.17 L 281.99,402.01 L 276.75,404.35 L 270.91,405.38 L 264.79,405.51 L 258.70,405.28 L 252.88,405.29 L 247.47,406.09 L 242.45,408.02 L 237.71,411.24 L 233.07,415.60 L 228.34,420.73 L 223.34,426.07 L 217.97,430.99 L 212.23,434.88 L 206.19,437.28 L 200.00,437.92 L 193.83,436.75 L 187.84,433.96 L 182.14,429.90 L 176.81,425.01 L 171.84,419.72 L 167.18,414.41 L 162.77,409.34 L 158.54,404.60 L 154.44,400.22 L 150.46,396.11 L 146.59,392.20 L 142.82,388.44 L 139.11,384.85 L 135.38,381.53 L 131.49,378.66 L 127.25,376.42 L 122.47,374.94 L 116.98,374.27 L 110.69,374.31 L 103.64,374.84 L 96.01,375.49 L 88.14,375.84 L 80.44,375.46 L 73.39,374.00 L 67.42,371.25 L 62.85,367.16 L 59.79,361.87 L 58.14,355.68 L 57.60,348.98 L 57.67,342.17 L 57.80,335.61 L 57.43,329.54 L 56.14,324.05 L 53.71,319.10 L 50.19,314.53 L 45.85,310.09 L 41.21,305.53 L 36.87,300.67 L 33.44,295.40 L 31.45,289.72 L 31.21,283.72 L 32.80,277.57 L 36.01,271.47 L 40.46,265.57 L 45.60,260.00 L 50.84,254.79 L 55.66,249.91 L 59.68,245.25 L 62.67,240.70 L 64.61,236.13 L 65.64,231.44 L 65.97,226.58 L 65.87,221.54 L 65.55,216.31 L 65.15,210.92 L 64.73,205.35 L 64.26,199.56 L 63.68,193.51 L 62.95,187.13 L 62.09,180.38 L 61.23,173.29 L 60.59,165.97 L 60.49,158.64 L 61.26,151.60 L 63.19,145.20 L 66.48,139.78 L 71.18,135.60 L 77.17,132.80 L 84.14,131.33 L 91.70,130.94 L 99.39,131.22 L 106.77,131.68 L 113.50,131.76 L 119.41,131.04 L 124.49,129.21 L 128.87,126.22 L 132.82,122.26 L 136.66,117.74 L 140.70,113.22 L 145.15,109.29 L 150.13,106.50 L 155.62,105.23 L 161.50,105.60 L 167.58,107.48 L 173.64,110.51 L 179.50,114.13 L 185.05,117.71 L 190.26,120.65 L 195.20,122.48 L 200.00,122.92 L 204.82,121.94 L 209.81,119.73 L 215.07,116.63 L 220.65,113.07 L 226.54,109.51 L 232.67,106.30 L 238.97,103.69 L 245.36,101.81 L 251.78,100.64 L 258.19,100.11 L 264.59,100.14 L 270.94,100.67 L 277.19,101.73 L 283.26,103.41 L 288.99,105.87 L 294.18,109.29 L 298.62,113.80 L 302.13,119.43 L 304.62,126.09 L 306.12,133.54 L 306.79,141.40 L 306.95,149.25 L 307.03,156.64 L 307.48,163.22 L 308.73,168.77 L 311.07,173.22 L 314.63,176.72 L 319.29,179.54 L 324.73,182.06 L 330.47,184.67 L 335.93,187.73 L 340.55,191.45 L 343.90,195.93 L 345.77,201.10 L 346.19,206.79 L 345.44,212.75 L 344.01,218.71 L 342.51,224.47 L 341.56,229.91 L 341.67,235.02 L 343.15,239.88 L 346.07,244.65 L 350.24,249.49 L 355.27,254.58 L 360.60,260.00 Z" fill="none" stroke="url(#grad)" stroke-width="2.1" stroke-linejoin="round" stroke-linecap="round"/>
  <text x="370" y="278.0" fill="#F5F5F2" font-family="Inter, Arial, Helvetica, sans-serif" font-size="70" font-weight="300" letter-spacing="0">Poetic Signal</text>
</svg>